<svg id="Layer_1" data-name="Layer 1" xmlns="http://www.w3.org/2000/svg" viewBox="0 0 652.29 680.35"><defs><style>.cls-1{fill:#1e3a8a;}.cls-2{fill:#006837;}.cls-3{fill:#fff;}</style></defs><path class="cls-1" d="M235.25,85.93c18.12-7.44,36.48-15,55.9-17.56s40.31.19,56.09,11.8c18.33,13.5,26.95,36.44,32.18,58.59s8.18,45.33,19.06,65.32a92.32,92.32,0,0,0,69.63,46.78c43.28,4.81,87.55-29,130.89-24.86,23,2.22,42.63,20.73,59.34,36.73,29.84,28.56,42.86,71.22,43.83,112.51s-8.81,82-18.54,122.15C672.41,543.7,660,592.32,627,626.73c-27,28.22-64.79,43.44-102.35,54.16-55.84,15.92-114.52,23.65-172.23,17.31S238,670.92,193.11,634c-17-14-33.19-32.43-33.39-54.44-.19-19.52,12.17-36.56,22.31-53.24s18.62-37.47,10.44-55.2c-4.69-10.16-14-17.23-22.53-24.47-27.83-23.66-50.66-53.77-63-88.15s-13.69-73.13-.89-107.34c9.31-24.9,25.53-46.5,38.66-69.61C163.91,147.83,201.56,105.76,235,86" transform="translate(-73.54 -43.79)"/><path class="cls-2" d="M241.58,108.89C258.25,102.05,275.11,95.13,293,92c.5-.09,2.36-.12,2.71-.45-1.33,1.25-4.4.43-1.26.21,1.91-.13,3.81-.33,5.73-.42a117.81,117.81,0,0,1,12.32.25c4.72.29-1.4-.3-1.45-.27a15.11,15.11,0,0,1,3.23.54c1.86.36,3.72.78,5.55,1.27s3.61,1.11,5.42,1.69c.66.22,3.13,1.38.17,0-3.44-1.61.85.45,1.56.81,1.69.85,3.33,1.79,4.93,2.8.68.43,1.35.9,2,1.34,3.95,2.55-1.23-.67-1.1-.92,0,0,7.3,7.06,8,7.86,3.75,4.4-1.91-3,.39.49,1.11,1.67,2.23,3.32,3.26,5,1.95,3.28,3.53,6.7,5.21,10.11,1.16,2.35-.91-2.22-.89-2.17.26.94.77,1.92,1.12,2.85.64,1.68,1.24,3.37,1.82,5.07,1.22,3.65,2.31,7.34,3.3,11,2.17,8.2,3.82,16.52,5.58,24.82,3.83,18,8.5,35.85,17.36,52.11,8.61,15.78,21.3,28.7,35.89,39a107.71,107.71,0,0,0,45,18.32c18.73,2.88,37,1.08,55.28-3.77,15.59-4.14,30.65-10,46.11-14.59a209,209,0,0,1,22.62-5.27c3.23-.57-4.91.49-1.66.24.78-.06,1.56-.17,2.34-.23,2.06-.18,4.14-.3,6.21-.34,1.55,0,3.1,0,4.65,0,1,0,2.07.14,3.1.17,4.43.11-3.86-.86-1-.19,3.54.81,6.87,1.79,10.33,2.89,2.44.77-2.08-.89-2.12-.92a19.19,19.19,0,0,0,2.81,1.34c1.88.94,3.71,2,5.51,3,3,1.82,6.08,4.9,9.28,6.28-3.62-1.56-2.59-2.06-1-.75.62.52,1.26,1,1.88,1.54,1.88,1.55,3.72,3.14,5.54,4.75,5.71,5.06,11.39,10.26,16.65,15.78,2.51,2.64,4.83,5.42,7.15,8.22,2,2.44-2.68-3.72-.89-1.11.43.63.91,1.25,1.36,1.88,1.2,1.69,2.35,3.41,3.47,5.15q3.13,4.92,5.85,10.08c.85,1.61,1.66,3.24,2.45,4.88.57,1.2,2.86,4.53,2.58,5.68,0-.15-2.19-5.53-.61-1.34.27.73.56,1.46.84,2.19.65,1.71,1.27,3.44,1.86,5.17q1.89,5.6,3.4,11.31t2.66,11.54c.31,1.55.59,3.11.86,4.67q.27,1.56.51,3.12c.13.86.84,5.53.24,1.53-.57-3.77.19,2,.3,3.12.18,1.83.34,3.66.47,5.5.29,4,.46,8.1.53,12.15a271.39,271.39,0,0,1-1.16,28.93c-.4,4.45-.72,9-1.5,13.43,0-.21.64-4.33.19-1.54-.2,1.27-.37,2.55-.57,3.82-.39,2.55-.81,5.1-1.24,7.64-3.24,18.82-7.61,37.41-12.08,56-3.82,15.8-7.62,31.61-12.23,47.2-2.22,7.5-4.62,14.95-7.31,22.31-1.28,3.49-3,6.94-4.08,10.49,1.85-6,.26-.63-.44.93q-1.47,3.28-3,6.51a185,185,0,0,1-11.28,20q-1.51,2.33-3.1,4.59c-.61.87-1.23,1.72-1.85,2.58-.38.54-2.12,2.66,0,.12,2.36-2.87-1.52,1.87-2.1,2.56q-2,2.46-4.2,4.81-4.14,4.53-8.66,8.67c-1.41,1.29-2.84,2.56-4.3,3.79-.62.53-1.25,1.06-1.89,1.58-2.53,2.07-1.42,1.67.33-.18-2.44,2.58-6.4,4.66-9.36,6.61q-5.15,3.38-10.51,6.4T567,640.18c-1.49.72-3,1.44-4.48,2.13-1,.47-2,.93-3,1.38-.72.32-5.19,2.17-1.72.78,3-1.21.36-.15-.21.09-1,.42-2.06.84-3.08,1.24q-2.71,1.08-5.43,2.1-5.85,2.19-11.76,4.16a509.12,509.12,0,0,1-51.16,14q-13.43,3-27,5.24c-2.49.41-5,.81-7.49,1.18-1,.15-7.59,1.15-4.34.63s-.05,0-.59.07l-3.76.45q-3.76.45-7.53.82a412.75,412.75,0,0,1-55.7,1.89q-13.71-.5-27.35-2c-2-.22-3.92-.47-5.88-.7-3.36-.4,4.64.68,1.3.17l-2.52-.37q-6.69-1-13.36-2.27a326.7,326.7,0,0,1-47.4-12.76q-6-2.12-11.87-4.47l-2.35-1c-1.61-.65-2.86-2.1,1,.43-1.8-1.18-4.22-1.84-6.18-2.73q-11.13-5.09-21.8-11.1c-7.34-4.15-14.5-8.62-21.42-13.43-1.62-1.13-3.23-2.26-4.82-3.42-.74-.54-5.69-4.37-3-2.19,2.46,2,.2.15-.26-.21l-2.64-2.11c-1.67-1.36-3.31-2.73-4.93-4.14-2.82-2.45-5.56-5-8.18-7.67q-2-2-3.83-4.1c-.71-.8-1.41-1.61-2.09-2.42-.35-.41-.68-.82-1-1.24q-1.66-2.07,1.29,1.68c-1.22-3.16-4.24-6.18-5.87-9.25-.44-.82-3.14-6.28-1.4-2.75,1.46,3,.32.73.1,0-.36-1.22-.78-2.42-1.1-3.65-.26-1-.39-2-.69-3-.72-2.4.44,2.34.26,2.53.51-.55-.28-4.46-.27-5.49s.16-2.21.14-3.31c0-2.59-.25,2.07-.36,2.25.89-1.61.93-4.55,1.45-6.38.43-1.48,2.25-4.77,2.14-6.23,0,.12-1.95,4.22-.77,1.86.49-1,.93-2,1.43-3,1.87-3.8,4-7.49,6.13-11.13,9.31-15.58,19.79-30.91,23.76-49,2.39-10.88,2.84-22,.14-32.84s-8.93-20.33-16.45-28.3c-5.34-5.68-11.62-10.4-17.46-15.53s-11.64-10.75-17-16.55c-2.79-3-5.5-6.07-8.12-9.21-1.23-1.47-2.43-3-3.62-4.45-.39-.48-2.18-2.69-.15-.18,2.32,2.87-.63-.89-1.08-1.51a205.68,205.68,0,0,1-12.87-19.88q-3-5.32-5.69-10.83c-.71-1.47-1.41-2.94-2.08-4.43a15.85,15.85,0,0,1-1.32-3c.42,2.37,1.5,3.66.21.41a174,174,0,0,1-7.53-24c-.94-4-1.68-8.1-2.37-12.17-.78-4.51.25.51.1,1.07a10,10,0,0,0-.3-2.64q-.43-4-.67-7.94a156,156,0,0,1,.55-25.57c.09-.87.56-4.71.1-1.21-.44,3.31,0,.29.07-.32.36-2,.69-4,1.1-6.07q1.3-6.48,3.22-12.81c.68-2.25,1.41-4.49,2.21-6.7.3-.84.61-1.66.92-2.49s1.92-4.22.45-1.26c-1.39,2.79-.05.11.18-.41.49-1.07,1-2.14,1.47-3.21,1-2.13,2-4.25,3.11-6.34,8-15.54,17.78-30,26.72-45,3.81-6.39,7.43-12.88,11.53-19.1q2.93-4.46,6-8.8,1.6-2.23,3.24-4.44c.63-.85,1.28-1.69,1.91-2.54,1.88-2.53-3.66,4.61-.28.37a337.51,337.51,0,0,1,32.16-35.24c5.59-5.28,11.42-10.24,17.4-15.06,2.05-1.65-1.86,1.43-1.8,1.39.83-.5,1.62-1.22,2.41-1.79,1.39-1,2.8-2,4.21-3,2.92-2,5.9-3.91,8.94-5.73,10.69-6.39,15.56-21.7,8.54-32.58S234.42,58.6,223,65.44c-28.74,17.18-53.43,41.9-73.95,68.15-10.93,14-20.25,28.45-29.35,43.64-9.27,15.45-19.43,30.41-27.46,46.58-18.38,37-23,77.64-14.69,118.07C85,378.1,103.9,411.16,128,438.83c11,12.63,23.89,22.75,36,34.17,1.56,1.47,3,3,4.49,4.55,2.86,2.95-2.54-4,.63.8.6.9,3,3.87,2.71,4.83-.09.28-1.62-5.83-.65-1.07.27,1.31.6,2.64.93,3.94.63,2.54-.41-2.22-.35-2.34a18.22,18.22,0,0,0,.11,3.23c0,1.14-.43,7-.1,3.34s-.1,0-.3.91-.51,2.18-.81,3.26q-.91,3.27-2.12,6.46c-.3.79-1.48,4.33-.42,1.13,1-2.94.1-.31-.2.3-1,2.05-2,4.11-3.13,6.13-2.16,4-4.55,7.78-6.93,11.61-4.47,7.19-9,14.38-12.57,22.08-9,19.48-13.06,41.16-4.87,61.74,7.06,17.74,18.9,32.61,33.36,45a290.14,290.14,0,0,0,46.24,32.31A330.63,330.63,0,0,0,321,717.46c76.5,14.2,157.21,4.91,230.59-20,34.34-11.66,68.27-28.22,93.38-55.06,24.69-26.39,39.47-59.81,49.85-94,4.84-16,8.77-32.2,12.7-48.42,4.63-19.17,9.19-38.39,12.53-57.83,6.63-38.58,8.93-77.85-.5-116.19A180.55,180.55,0,0,0,700,277.51c-8.95-15.1-20.59-27.9-33.44-39.74-14.26-13.15-29.5-24.85-47.84-31.59-18.12-6.67-38.7-4.74-57.16-.7-16.26,3.57-31.83,9.59-47.67,14.59a215.1,215.1,0,0,1-23.41,6.2c-1.78.34-3.7.47-5.45.94,6.39-1.73.77-.13-1.44,0a85.54,85.54,0,0,1-12.4.07,25.68,25.68,0,0,0-3.1-.28c-.1,0,5.23.85,2.61.35-1.72-.33-3.45-.59-5.16-1A89.88,89.88,0,0,1,454,223.08a17.75,17.75,0,0,0-2.81-1.08c.3-.12,5.4,2.48,1.55.62-1.57-.76-3.16-1.51-4.71-2.33a95.85,95.85,0,0,1-10.23-6.3,21,21,0,0,0-1.82-1.32c4.35,2.38,2.61,2.12,1.26,1-1.51-1.32-3-2.59-4.51-4a92,92,0,0,1-7.74-8.18c-3.73-4.47,2.51,3.64-.84-1.13-1-1.44-2-2.9-2.89-4.39-2.19-3.57-4.9-7.71-6.07-11.74.18.62,1.9,4.94.43.86-.29-.82-.61-1.63-.9-2.45q-1-2.87-1.93-5.78c-1.39-4.45-2.58-9-3.66-13.51-2.12-8.84-3.83-17.77-5.81-26.64-3.75-16.74-9-33.66-17.82-48.47A90.18,90.18,0,0,0,340.13,49.8c-18.7-7.37-39.43-7.08-58.94-3.84C263,49,245.86,56,228.92,63c-6,2.46-10.83,5.13-14.23,10.94-3,5.11-4.25,12.63-2.4,18.35,3.58,11.07,17,21.7,29.29,16.63Z" transform="translate(-73.54 -43.79)"/><path class="cls-3" d="M208.06,127.27c-22,29.35-44.74,58.42-62.6,90.57-8.49,15.27-15.5,31.28-22,47.47C117.25,280.55,113,295.9,113,312.46c-.06,32.7,13.62,64.44,32.7,90.47a214.64,214.64,0,0,0,33,35.79c10.9,9.4,24.81,19.1,29.85,33.22,2.5,7,2.26,14.84,1.87,22.17s-1.32,14.61-3.74,21.46c-4.56,12.85-16.58,20.53-23.2,32.08-15.46,27,9.23,57.7,26.77,76.75,10.22,11.09,21.56,20.88,35.17,27.56,16.48,8.09,34.39,13.84,52,18.87,37,10.57,75.53,16,114,14.93A342.87,342.87,0,0,0,522.9,663.65c17.65-6.69,35.35-13.47,52.68-21A275.5,275.5,0,0,0,601,630.31c7.11-4,12.88-7.4,17-14.57,3.55-6.14,6.21-11.12,11.72-15.77,5-4.26,8.51-8.62,10.32-15.11,5-17.79,10-35.45,15.84-53,11.61-34.64,24.43-69.23,29.88-105.52,2.69-17.91,2.67-35.45,2.45-53.51-.17-13.15-1.16-25.23-5.48-37.78-5.11-14.85-10-31-19.6-43.62-3.83-5-8.65-9.05-12.29-14.25-3.89-5.57-7.44-11.36-11.58-16.76-3.53-4.62-7.52-9.3-12.91-11.78-7.14-3.27-15.73-4.39-23.47-5.21-15.8-1.68-31.77.47-47.18,4-31.81,7.25-63.17,21.05-96.36,20.12-6.62-.19-12.86-3.62-18.6-6.64-5.94-3.14-11.82-6.34-17.84-9.32-12.78-6.31-23.17-17.31-31.35-28.78C383.08,211,375.91,197.53,373,183.16c-3-14.61-1.93-29.78-4.71-44.45a56.68,56.68,0,0,0-7.09-19.27c-4.05-6.53-9.54-10.58-15.34-15.36-5-4.1-8.27-9.75-13-14-5.43-4.88-11.65-6.63-18.86-6.47-25.55.57-52.68,1.54-75.1,15.27-11.49,7-21.12,16.63-29.66,27-4.85,5.86,3.53,14.33,8.42,8.42,8.39-10.15,17.73-19.67,29.23-26.28,9.82-5.63,20.78-8.65,31.94-10.23,6.3-.89,12.67-1.32,19-1.64,6.67-.35,14.93-1.85,21.46-.34,5.42,1.25,8.73,6.62,12.13,10.59,4.49,5.24,10.26,8.64,15.05,13.49,9.7,9.8,11.14,24.21,12.1,37.28,1.05,14.25,1.61,28.41,6.72,41.92,9.56,25.26,28.23,51.8,53.25,63.61,11.76,5.56,23.17,14.38,36.28,16.43,7.58,1.18,15.79.25,23.37-.65a219.2,219.2,0,0,0,23.72-4.18c30.08-6.95,59.65-19.82,91-19.47a95.49,95.49,0,0,1,23.31,3.09c6.15,1.62,9.53,4.37,13.43,9.39s7,10.32,10.61,15.45,7.67,9.09,11.7,13.69c10,11.43,14.49,27.76,19.34,41.85a82.27,82.27,0,0,1,4.51,18.13c.63,5.95.47,12,.56,17.94.26,17.35.32,34.29-2.44,51.48a384.31,384.31,0,0,1-12.41,51.29C651,511.24,638,544.55,629.19,579.19c-.73,2.84-1.31,5.77-3.2,8.11s-4.4,3.92-6.55,5.84c-5.18,4.63-8,10.06-11.39,16-1.45,2.55-2.68,4.59-5.13,6.21-4.08,2.7-8.47,5-12.8,7.31-8.12,4.29-16.5,8.1-25,11.63C531.28,648.38,496.91,662,460.71,668.7a336.2,336.2,0,0,1-110.23,1.54A394.67,394.67,0,0,1,295.94,658c-16.56-4.94-33.73-10.26-48.94-18.6-12.55-6.89-22.74-16.89-32.09-27.59s-18.91-23.06-23-36.9c-1.78-6-2.14-12.37.31-18.28,2.28-5.5,6.52-9.92,10.45-14.28,9.45-10.49,16-21.16,18.24-35.3s3.24-29.76-2.83-42.95c-6.16-13.41-18.36-23-29.31-32.36-23.84-20.36-44.15-45.8-55.34-75.33-5.5-14.54-8.81-29.9-8.56-45.48.26-16.11,5.18-30.81,11.29-45.55,13.46-32.52,30.84-62.17,51.38-90.72,10-14,20.47-27.63,30.79-41.38,4.6-6.13-5.73-12.07-10.28-6Z" transform="translate(-73.54 -43.79)"/></svg>